<svg xmlns="http://www.w3.org/2000/svg" viewBox="0 0 180.88 128.53"><defs><style>.cls-1{fill:#231f20;}</style></defs><title>Asset 1</title><g id="Layer_2" data-name="Layer 2"><g id="Layer_1-2" data-name="Layer 1"><path class="cls-1" d="M0,88.13v-1c.49-2.23.26-4.51.54-6.75A32.5,32.5,0,0,1,7,65.21c6.29-8.58,14.62-14.28,25.18-16.16A40.21,40.21,0,0,1,61,54.4Q76.37,63.75,91.79,73c13.64,8.15,27.15,16.53,40.8,24.69,6.78,4,14,3.07,19.17-1.91a15.21,15.21,0,1,0-24.18-17.9,16.53,16.53,0,0,0-1.82,6.7c-.15,2-.88,2.38-2.58,1.37q-9.57-5.66-19.09-11.44a2.37,2.37,0,0,1-1-3.15,38.25,38.25,0,0,1,7.69-13.06,41,41,0,0,1,10.15-8.35,1.71,1.71,0,0,0,.83-2.5,29.07,29.07,0,0,0-4.59-7c-6.33-7.24-14.44-10.83-23.91-11.73-2.12-.2-4.23-.25-6.35-.24-8,0-16.1-.44-24.16-.4-2.57,0-5.17-.27-7.77-.24-2,0-2.39.29-2.33,2.28.15,4.93-.33,9.85-.35,14.77,0,2.62-.39,3.18-2.94,2.93-5-.5-10.06,0-15.08-.51-2.31-.26-4.66,0-7-.08s-2.89-.4-2.84-2.75c.14-6.14.16-12.29.57-18.42a6.87,6.87,0,0,0,0-.79c-.2-6.47.51-12.92.33-19.38,0-1.5.35-2.95.38-4.43A1.19,1.19,0,0,1,26.55.17c1.13,0,2.25,0,3.37,0h7.7C45.41.15,53.19.28,61,.37c5.4.06,10.81-.1,16.2.14C83.58.79,90,.34,96.39.86a62.43,62.43,0,0,1,19.5,4.86,58.89,58.89,0,0,1,15.39,9.42,59.42,59.42,0,0,1,13.49,15.91,54.36,54.36,0,0,1,5.48,13.16,2.72,2.72,0,0,0,2.18,2,40.07,40.07,0,0,1,27.64,28.62,31.83,31.83,0,0,1,.65,6.62,18.46,18.46,0,0,0,.14,3.64,36.74,36.74,0,0,1-12.41,29.45c-7.31,6.69-15.86,10.58-26,10.6-5.29,0-10.46-.37-15.44-2.34a82.77,82.77,0,0,1-12.3-6.63C103,109.13,91.27,102.12,79.59,95,68.91,88.53,58.25,82,47.48,75.63a15.21,15.21,0,0,0-16,25.88c4.54,3.17,11.66,3.24,16.55,0a14.79,14.79,0,0,0,6.87-11.94c.15-2.49.87-2.89,3.06-1.61,6,3.51,11.86,7.22,17.84,10.75,2.24,1.32,2.58,2.13,1.6,4.58a40.25,40.25,0,0,1-25.34,24c-3.12,1-6.36,1-9.57,1.17H37.36c-10,.2-18.34-3.73-25.49-10.59A39.85,39.85,0,0,1,1.31,100.7C.25,97.32.34,93.81.16,90.34.08,89.6.34,88.84,0,88.13Z"/><path class="cls-1" d="M37.86,0a2.45,2.45,0,0,0,0,.27H33.75c-.24-.06-.25-.15,0-.26Z"/><path class="cls-1" d="M33.73,0a2.28,2.28,0,0,1,0,.26L29.92.3c-.22-.09-.23-.19,0-.3Z"/><path class="cls-1" d="M29.91,0a1,1,0,0,0,0,.3l-3.5,0V0Z"/><path class="cls-1" d="M.28,90.37l-.28,0V88.13C.56,88.82.28,89.61.28,90.37Z"/><path class="cls-1" d="M37.23,128.53a2.28,2.28,0,0,1,0-.26h1.9l.23.1-.21.15Z"/><path class="cls-1" d="M39.13,128.53a2,2,0,0,1,0-.25l2,0c.22.11.21.2,0,.28Z"/><path class="cls-1" d="M41,128.53c0-.09,0-.18,0-.28l1.59,0a2.28,2.28,0,0,1,0,.26Z"/></g></g></svg>