<svg xmlns="http://www.w3.org/2000/svg" viewBox="0 0 191.3 135.94"><defs><style>.cls-1{fill:#fff;}</style></defs><title>Asset 3</title><g id="Layer_2" data-name="Layer 2"><g id="Layer_1-2" data-name="Layer 1"><path class="cls-1" d="M0,93.21v-1c.51-2.36.28-4.78.58-7.15A34.25,34.25,0,0,1,7.4,69C14.06,59.89,22.87,53.87,34,51.88a42.59,42.59,0,0,1,30.53,5.65q16.22,9.89,32.52,19.65c14.43,8.63,28.72,17.49,43.15,26.12,7.17,4.28,14.81,3.25,20.28-2a16.09,16.09,0,1,0-25.58-18.94,17.63,17.63,0,0,0-1.92,7.1c-.15,2.06-.93,2.51-2.73,1.45q-10.12-6-20.18-12.11a2.5,2.5,0,0,1-1.1-3.32,40.24,40.24,0,0,1,8.14-13.82,43.2,43.2,0,0,1,10.72-8.83,1.81,1.81,0,0,0,.89-2.65,30.82,30.82,0,0,0-4.86-7.43c-6.7-7.66-15.27-11.46-25.29-12.41-2.24-.21-4.47-.27-6.71-.26-8.52.05-17-.45-25.55-.42-2.73,0-5.48-.27-8.22-.25-2.16,0-2.53.31-2.46,2.42.15,5.21-.36,10.41-.38,15.62,0,2.77-.4,3.36-3.11,3.09-5.31-.53-10.64,0-15.94-.54-2.45-.27-4.93,0-7.4-.08s-3-.43-3-2.91c.15-6.5.17-13,.6-19.48a7.86,7.86,0,0,0,0-.84c-.21-6.84.54-13.66.35-20.5,0-1.58.37-3.11.4-4.68A1.27,1.27,0,0,1,28.08.18c1.19,0,2.38,0,3.57,0h8.14C48,.15,56.26.3,64.49.39,70.21.46,75.92.28,81.63.54,88.4.83,95.18.36,102,.91a66,66,0,0,1,20.62,5.14,62.25,62.25,0,0,1,16.28,10,63.2,63.2,0,0,1,14.27,16.83,57.71,57.71,0,0,1,5.79,13.92,2.9,2.9,0,0,0,2.3,2.15,41.64,41.64,0,0,1,19,11.6,42.15,42.15,0,0,1,10.25,18.66,33.54,33.54,0,0,1,.69,7,19.85,19.85,0,0,0,.14,3.85,38.86,38.86,0,0,1-13.12,31.15c-7.73,7.07-16.78,11.19-27.51,11.2-5.6,0-11.07-.39-16.33-2.47a87,87,0,0,1-13-7C109,115.42,96.53,108,84.18,100.5,72.88,93.63,61.6,86.73,50.22,80a16.09,16.09,0,0,0-16.89,27.37c4.8,3.36,12.34,3.43,17.51,0A15.65,15.65,0,0,0,58.11,94.7c.16-2.65.92-3.07,3.24-1.71,6.33,3.71,12.54,7.63,18.86,11.36,2.37,1.41,2.73,2.26,1.7,4.85A43.44,43.44,0,0,1,75,121.06a42.94,42.94,0,0,1-19.9,13.47c-3.3,1.08-6.72,1.07-10.12,1.24H39.52c-10.63.21-19.41-3.94-27-11.2A41.92,41.92,0,0,1,1.39,106.5c-1.12-3.57-1-7.28-1.22-11C.08,94.77.36,94,0,93.21Z"/><path class="cls-1" d="M40,0c0,.09,0,.19,0,.28H35.7c-.25-.07-.26-.16,0-.28Z"/><path class="cls-1" d="M35.67,0l0,.28-4.05,0c-.24-.1-.25-.2,0-.32Z"/><path class="cls-1" d="M31.63,0a1.15,1.15,0,0,0,0,.32L28,.34l0-.34Z"/><path class="cls-1" d="M.3,95.58l-.3,0V93.21C.59,93.94.29,94.78.3,95.58Z"/><path class="cls-1" d="M39.37,135.94a2.46,2.46,0,0,1,0-.28l2,0,.25.1-.22.16Z"/><path class="cls-1" d="M41.39,135.94a1.15,1.15,0,0,1,0-.26l2.07,0c.23.11.22.21,0,.29Z"/><path class="cls-1" d="M43.41,135.94a1.37,1.37,0,0,1,0-.29h1.68a2.46,2.46,0,0,1,0,.28Z"/></g></g></svg>